<svg xmlns="http://www.w3.org/2000/svg" width="645" height="1200" viewBox="0 0 516.000000 960.000000"><g transform="matrix(.1 0 0-.1 0 960)"><path d="m1655 9133c-247-34-413-181-446-393-12-79-8-135 22-335l20-129 58-66 59-66-8-165c-9-171-14-199-48-264-34-68-81-104-153-121-35-8-111-38-169-66-157-77-223-150-400-443-96-158-108-184-118-248-12-74 1-168 42-312 28-98 38-156 51-315 18-212 35-321 66-418 50-160 82-204 339-467 151-155 290-315 290-334 0-4-23-46-52-92-122-197-125-215-82-402 48-207 45-274-21-562-19-82-39-197-44-255-10-119-20-147-91-265-27-45-50-88-50-95 0-7 26-44 57-83 32-38 66-79 75-91l17-21 40 33c22 17 41 32 43 32 2 0 3-143 2-318l-1-317-40-125c-47-144-68-257-83-455-14-170-17-187-73-345-55-155-101-318-122-433-24-132-8-259 72-569l46-178h34c18 0 33 5 33 10 0 6-20 86-45 178-60 221-75 314-75 452 0 98 5 134 34 246 32 122 117 358 135 377 7 7 74-160 111-278 17-54 27-65 62-65 25 0 29 3 23 18-41 97-116 382-144 553-28 160-17 228 78 511 55 164 57 197 31 406-22 173-22 179-5 252 19 83 32 330 17 330-19 0-85-85-114-146-16-35-31-64-33-64-2 0-19 22-39 49l-36 49 25 44c38 69 63 148 100 328 19 91 45 208 58 260 45 174 44 348-3 577-25 121-25 179 0 247 22 58 81 121 124 132 14 3 62-7 122-26 117-38 231-49 299-30 39 11 56 24 100 79 115 144 267 406 309 533 33 102 45 194 56 440 6 111 17 235 25 273 8 39 19 144 25 235 12 190 22 250 56 326 59 133 0 282-149 375-29 18-54 34-56 36-2 1 15 42 38 90 36 74 57 102 137 181l94 93 92-48c120-63 226-161 267-246 107-219 119-497 32-684-36-77-129-177-178-194-35-11-146-8-223 7l-34 7 36-43c20-23 45-59 54-79 19-39 24-125 8-141-5-5-48-15-94-21-47-7-89-16-94-20-6-5 0-19 14-34 35-37 91-34 173 9l65 33 94-13c51-7 127-20 167-29 40-9 75-14 79-11 11 12-36 61-82 85-38 20-67 25-151 29l-103 5-7 36c-3 20-8 43-11 53-4 13 6 19 47 27 102 22 210 98 270 191l17 25 7-50c3-27 15-95 26-150 11-55 23-140 26-190 7-116-13-178-108-337l-70-117-37 6c-84 14-85 14-98 79-21 106-55 209-64 193-4-7-10-54-13-104-12-173-45-224-151-232-36-3-66-7-66-10 0-2 12-21 26-43l26-39 42 21c22 11 66 36 97 54 66 40 77 41 129 14 54-28 65-26 118 21l47 41 3-57c2-32-2-88-7-125-10-59-8-75 10-126 26-76 35-190 17-224-30-56-151-102-408-156-167-35-179-36-256-25-117 16-193 14-234-9l-35-18 59-28c32-14 101-34 153-42 85-14 104-14 211 1 65 9 180 35 257 58 77 23 164 49 193 57l53 16 75-75 76-74-6-90c-3-49-15-126-26-170l-20-79 54-121c82-183 127-310 147-420 26-137 45-190 92-259 28-42 36-61 27-64-40-14-128-68-226-140-118-87-229-145-315-163-65-14-139-6-294 32-66 16-127 29-137 29-23 0-23 18 2 55 34 51 90 84 207 121 111 35 112 35 142 84 51 82 122 272 108 287-9 8-97-110-153-204l-51-86-89-18c-49-10-115-28-147-40-75-28-82-45-101-216-16-143-10-134-118-189-110-56-206-78-338-79-126 0-223 22-307 71-52 30-61 30-69-2-9-36 25-69 111-110 138-64 265-68 495-15 69 16 126 28 128 26 7-6-52-315-75-395-13-47-45-123-71-170-100-184-138-273-223-532-64-196-107-307-158-411-129-262-170-436-139-589 16-75 31-109 42-97 3 3 16 91 30 196 13 105 34 226 46 269 21 80 76 195 96 201 7 2 10-62 9-204l-1-208-37-102c-99-274-106-301-121-413-8-63-12-118-10-122 3-4 24-8 48-8h42l22 131c15 92 39 181 79 297l58 167v320c1 230 5 333 14 365 103 362 166 530 252 675 91 155 134 315 146 539l6 125 58 57c32 32 60 56 63 53 2-2 18-33 36-69 18-36 68-122 112-192 109-175 115-193 133-353 14-129 19-147 66-253 72-162 184-386 195-390 13-5 33 56 33 105 1 47-24 118-94 271-42 92-48 114-56 205-4 56-15 127-24 157-43 140-195 384-299 476-70 62-116 126-116 162 0 12 2 22 5 22 3 0 41-18 84-39 132-67 195-84 277-77 152 14 333 87 468 189 38 29 77 58 86 64 15 12 17-5 29-215 7-125 15-253 18-285l6-57h-45-44l-28-89c-34-112-82-195-115-199-58-9-121 46-174 154-29 60-57 84-57 49 0-8 16-56 37-106 43-108 93-169 139-169 77 1 150 64 214 184 19 36 38 66 41 66 3 0 21-39 40-87 41-107 42-130 5-363-18-111-30-233-33-335-5-144-3-175 22-315 25-142 28-186 36-525 8-384 13-431 59-562 13-39 35-73 67-105 46-47 48-48 110-48 35 0 63 3 63 8 0 4-25 24-55 45-65 45-97 96-124 197-26 101-30 156-41 575-7 252-14 380-24 425-43 189-45 471-4 680 30 150 28 204-9 320-29 91-31 104-37 330-5 209-14 319-32 415-4 26-1 33 26 49 32 18 90 98 90 123 0 8-16 28-36 45-50 45-72 93-105 240-18 81-55 197-98 307-111 283-109 274-83 384 12 50 22 120 22 154 0 58-3 65-60 151-58 84-62 95-80 195-38 208-42 456-12 627 7 43 9 45 44 48 34 3 39-1 62-37 40-63 102-117 239-207 147-98 161-104 225-104 68 0 136 36 227 121 150 139 222 235 300 403 81 173 114 285 155 531 51 308 45 288 84 278 17-4 69-8 116-8 73 0 93 4 142 28 69 34 117 86 161 174 93 185 107 407 42 651-30 110-68 189-129 264-84 103-217 168-314 153-141-21-224-87-292-231-22-49-46-100-53-113-10-20-25-27-82-38-81-15-116-37-130-81-5-18-12-32-15-32-3 0-16 20-29 45-32 60-132 152-200 183-71 33-144 34-240 4-97-31-165-96-218-209-20-43-37-79-38-81-1-1-19 7-41 18-21 11-91 44-154 73-63 30-133 68-154 86-46 37-108 56-225 71-46 5-86 12-88 14-2 2 12 59 31 127 62 219 79 319 79 479 1 119-3 161-22 235-12 50-33 146-47 213-29 145-39 169-108 237-68 69-146 106-244 116-79 8-224 9-277 2m409-114c127-113 135-127 180-341 56-264 61-317 42-467-16-122-39-235-72-346-13-48-18-52-79-83l-64-31-133 43c-249 82-285 108-357 261-36 76-42 83-112 127-41 26-90 60-108 76l-35 29 21 84c12 46 24 93 29 103 6 17 4 18-21 12-15-4-40-10-56-13l-29-5v83c1 175 51 306 149 386 123 100 254 139 481 142l96 1 68-61m-587-964c148-233 142-226 228-272 108-58 221-93 330-101l90-7 3-60c2-33 7-64 11-68 5-5 21 22 37 60 15 37 29 69 30 71 2 4 276-97 283-104 9-8-6-13-72-24-144-23-231-70-267-145-21-44-23-45-71-45-27 0-106 11-176 25-71 13-144 25-163 27l-35 3-6 60c-3 34-17 85-31 115-36 79-158 230-158 196 0-1 20-45 44-97 48-104 111-268 105-273-2-2-50-17-105-35-93-28-106-30-158-20-32 6-62 9-67 7-12-4 103-85 204-144 108-63 215-167 261-254 55-104 80-226 80-395 1-108-4-154-18-200-39-131-120-241-210-287-134-69-326 32-419 222-166 337-103 761 136 910 31 19 56 38 57 41 0 4-37 17-82 30-63 17-118 24-224 27l-142 4-11-48c-6-27-17-75-25-106-17-70-11-68 73 16l54 54 81 6c45 4 97 10 116 13l35 5-36-38c-145-154-208-412-169-688 12-78 10-81-53-92-48-8-40-17 20-24 26-3 49-11 54-20 4-8 27-55 50-105 35-73 58-105 124-170 87-87 156-128 250-147 51-10 58-9 112 18 86 42 182 142 226 234 54 112 71 194 71 340 0 96-6 147-23 220-47 194-48 191 62 225 46 14 88 25 94 25 6 0 48-37 95-82l85-83-9-85c-9-102-53-438-73-570-8-52-22-180-30-285-29-359-61-496-157-675-109-203-177-286-272-331l-59-28-66 36c-209 114-251 139-299 176-49 37-132 130-132 147 0 4 24 11 54 14l54 7-14 52c-36 138-127 264-235 326-78 44-91 39-37-16 73-77 124-148 168-234 64-129 55-134-57-32-160 144-256 245-285 298-44 85-115 312-149 483-17 89-28 166-24 170 4 4 10 1 12-6 21-57 165-199 171-169 5 24-57 148-146 294-102 168-117 211-115 331 1 116 17 160 97 266 34 45 84 115 111 156 62 91 191 224 267 273 32 21 105 57 163 81 119 49 148 67 169 99 25 38 46 191 46 338 0 82 4 139 10 139 5 0 31-34 57-75m2813-113c219-123 316-298 327-597 6-151-7-225-59-332-42-85-121-168-174-181-21-6-79-14-128-18-83-6-89-5-82 11 12 31 34 197 41 300 6 98 5 103-39 254-25 84-50 177-56 206l-11 52-52 7c-29 3-73 6-99 6-27 0-48 5-48 10 0 20 48 105 93 167 50 67 158 163 185 163 9 0 55-21 102-48m-929-257c98-50 178-135 234-250 57-116 78-216 78-370 0-183-42-318-129-415-126-139-297-132-436 18-66 72-109 151-144 267-25 82-28 105-28 250 0 120 4 176 17 222 19 71 65 166 99 203 34 37 111 98 139 109 37 16 93 4 170-34m736-306c90-332 90-323-26-649-16-47-35-125-41-175-37-294-136-575-271-771-64-93-216-239-275-265-78-35-110-30-184 27-36 27-106 76-156 107-77 49-96 66-119 110-15 29-39 67-53 86-25 33-26 41-26 175-1 123-5 161-36 299-33 151-36 158-57 154-28-5-28-7-1 73 21 59 23 84 23 283 0 119 2 217 5 217 3 0 18-54 33-119 15-65 43-151 62-190 68-141 189-235 354-276l71-17 65 42c135 88 227 223 259 382 21 100 20 139-3 229-11 41-29 136-40 211-11 76-25 146-30 157-22 41-18 44 149 101 76 26 219 60 228 55 1-1 32-112 69-246m-1292 69c52-20 89-40 87-47-2-10-21-277-22-303 0-5-3-8-8-8-4 0-13 24-20 53-27 115-133 269-230 337-28 19-51 41-52 47 0 12 28 3 245-79m-903-133c84-14 165-25 181-25 24 0 28-3 22-17-3-10-16-51-28-90l-21-73h-93c-101 0-97 3-105-69-3-21-8-17-42 33-45 66-123 139-219 206-39 28-62 50-55 53 35 14 220 5 360-18"/><path d="m1170 6044c0-4 34-53 75-109 70-96 155-185 177-185 25 0-40 125-99 191-53 58-153 126-153 103"/><path d="m1710 5993c-25-13-69-30-97-39-46-13-53-19-53-42 0-41-34-100-106-187-37-44-77-102-90-130-23-49-32-125-15-125 4 0 21 19 36 42 15 23 73 91 129 151 133 145 170 190 212 264 46 81 43 95-16 66"/><path d="m1595 5279c-49-27-116-59-147-71-32-13-58-26-58-30 0-16 61-38 103-38 59 0 129 46 179 119 61 88 53 90-77 20"/><path d="m3847 6700c-3-8-15-79-27-157-17-108-21-167-17-250 4-102 20-173 37-173 18 0 43 270 38 413-5 132-19 207-31 167"/><path d="m3644 6566c-27-18-85-52-129-76-140-76-166-99-257-238-47-70-96-147-110-172-35-60-70-166-66-199 3-23 7-19 30 31 52 112 104 175 318 388 204 202 279 285 268 295-2 2-26-10-54-29"/><path d="m2511 5320c-23-17-50-45-61-63-22-35-36-94-26-104 8-8 56 49 108 126 55 81 50 92-21 41"/><path d="m2020 5080c0-19 62-79 104-99 44-22 91-27 114-12 10 6 2 18-32 45-64 53-186 96-186 66"/><path d="m2705 4819c-246-81-440-119-610-119-116 0-172 8-390 56-88 20-180 36-205 37l-44 2-53-155c-29-85-53-162-53-171 0-10 11-20 24-23 13-3 31-9 40-12 13-5 16 1 16 33 0 50 24 142 57 218 15 33 28 62 29 64 3 4 226-69 236-78 13-12-40-110-88-161-25-27-106-90-179-140-129-88-173-125-163-135 7-7 151 46 215 79 128 64 234 174 269 278 15 46 18 49 43 44 14-4 94-9 177-13 169-7 296 5 439 42 156 40 229 73 287 132 29 29 50 53 48 53-3-1-45-14-95-31"/><path d="m2625 4503c-266-23-645-120-737-188-27-19-48-40-48-46 0-13-6-15 275 61 121 33 260 66 309 75 93 16 236 20 236 8 0-5-53-28-118-52-197-75-290-118-375-175-82-54-145-111-135-121 2-3 61 21 129 54 184 87 371 169 484 212l100 38 3 70 3 71-43-2c-24-1-61-3-83-5"/><path d="m2775 4124c-122-37-270-61-610-99-442-49-405-42-405-78v-30l105 7c58 4 167 15 243 26 75 10 210 24 298 29 232 16 338 47 433 127 29 24 41 46 24 43-5-1-44-12-88-25"/><path d="m1650 2519c-31-19-171-59-233-65l-64-6-6-67c-3-36-9-87-13-113-4-27-3-48 2-48 5 0 27 33 49 72l40 71 105 28c58 16 110 29 115 29 6 0 19-19 30-42 22-46 49-68 64-53 8 9-52 182-69 199-3 3-12 1-20-5"/><path d="m2586 1983c-10-60-22-174-28-256-17-214-9-249 96-460 46-95 94-196 106-226 25-66 50-220 50-317 0-67-21-220-36-258-6-15 0-17 42-14l49 3v280c0 202-4 291-13 320-8 22-42 99-78 170-61 124-65 137-91 290-21 126-27 197-28 330-1 144-4 176-20 208-10 20-22 37-26 37-3 0-14-48-23-107"/><path d="m1445 2030c-35-38 6-70 91-70 42 0 84 24 84 49 0 11-97 41-132 41-14 0-33-9-43-20"/></g></svg>